<svg width="24" height="24" viewBox="0 0 24 24" fill="none" xmlns="http://www.w3.org/2000/svg">
<g clip-path="url(#clip0_11_1823)">
<path fill-rule="evenodd" clip-rule="evenodd" d="M22.2797 13.3086C24.7437 10.3591 24.5594 6.01344 21.7354 3.27406C19.0827 0.701051 14.9872 0.403737 12 2.37525C9.01276 0.403738 4.91727 0.701051 2.26465 3.27406C-0.559477 6.01343 -0.743705 10.3591 1.7202 13.3086C1.77023 13.3953 1.83242 13.4756 1.90562 13.5466L11.2404 22.6013C11.6637 23.0117 12.3363 23.0117 12.7595 22.6013L22.0944 13.5466C22.1676 13.4756 22.2298 13.3953 22.2797 13.3086ZM16.3636 6.54546C17.5687 6.54546 18.5455 7.52229 18.5455 8.72727H20.7273C20.7273 6.3173 18.7736 4.36364 16.3636 4.36364V6.54546Z" fill="#A5A7AF"/>
</g>
<defs>
<clipPath id="clip0_11_1823">
<rect width="24" height="24" fill="white"/>
</clipPath>
</defs>
</svg>
