<svg width="28" height="28" viewBox="0 0 28 28" fill="none" xmlns="http://www.w3.org/2000/svg">
<g clip-path="url(#clip0_11_1819)">
<path d="M20.4167 2.23645C19.103 2.25688 17.8179 2.62361 16.6913 3.2996C15.5646 3.97559 14.6363 4.9369 14 6.08645C13.3638 4.9369 12.4355 3.97559 11.3088 3.2996C10.1822 2.62361 8.89709 2.25688 7.58337 2.23645C5.48913 2.32744 3.51602 3.24358 2.09511 4.78472C0.674202 6.32586 -0.0790096 8.36673 3.27202e-05 10.4615C3.27202e-05 15.7663 5.5837 21.56 10.2667 25.4881C11.3123 26.3668 12.6343 26.8485 14 26.8485C15.3658 26.8485 16.6878 26.3668 17.7334 25.4881C22.4164 21.56 28 15.7663 28 10.4615C28.0791 8.36673 27.3259 6.32586 25.905 4.78472C24.484 3.24358 22.5109 2.32744 20.4167 2.23645Z" fill="#DFDFE5"/>
</g>
<defs>
<clipPath id="clip0_11_1819">
<rect width="28" height="28" fill="white"/>
</clipPath>
</defs>
</svg>
