<svg width="24" height="24" viewBox="0 0 24 24" fill="none" xmlns="http://www.w3.org/2000/svg">
<path d="M15 2.5H9C7.27715 2.50344 5.62584 3.18936 4.4076 4.4076C3.18936 5.62584 2.50344 7.27715 2.5 9V15C2.50344 16.7229 3.18936 18.3742 4.4076 19.5924C5.62584 20.8106 7.27715 21.4966 9 21.5H15C16.7229 21.4966 18.3742 20.8106 19.5924 19.5924C20.8106 18.3742 21.4966 16.7229 21.5 15V9C21.4966 7.27715 20.8106 5.62584 19.5924 4.4076C18.3742 3.18936 16.7229 2.50344 15 2.5V2.5ZM15.71 14.29C15.8974 14.4788 16.0025 14.734 16.0025 15C16.0025 15.266 15.8974 15.5212 15.71 15.71C15.5204 15.8959 15.2655 16.0001 15 16.0001C14.7345 16.0001 14.4796 15.8959 14.29 15.71L12 13.42L9.71 15.71C9.52044 15.8959 9.26551 16.0001 9 16.0001C8.73449 16.0001 8.47956 15.8959 8.29 15.71C8.10265 15.5212 7.99752 15.266 7.99752 15C7.99752 14.734 8.10265 14.4788 8.29 14.29L10.58 12L8.29 9.71C8.1017 9.5217 7.99591 9.2663 7.99591 9C7.99591 8.7337 8.1017 8.4783 8.29 8.29C8.4783 8.1017 8.7337 7.99591 9 7.99591C9.2663 7.99591 9.5217 8.1017 9.71 8.29L12 10.58L14.29 8.29C14.4783 8.1017 14.7337 7.99591 15 7.99591C15.2663 7.99591 15.5217 8.1017 15.71 8.29C15.8983 8.4783 16.0041 8.7337 16.0041 9C16.0041 9.2663 15.8983 9.5217 15.71 9.71L13.42 12L15.71 14.29Z" fill="#A5A7AF"/>
</svg>
