<svg width="24" height="24" viewBox="0 0 24 24" fill="none" xmlns="http://www.w3.org/2000/svg">
<path d="M15 9.50002H9V7.00002C9.00237 6.2051 9.31921 5.44342 9.8813 4.88132C10.4434 4.31923 11.2051 4.00239 12 4.00002C12.6798 3.99951 13.3417 4.21811 13.8875 4.6234C14.4333 5.02869 14.8339 5.59909 15.03 6.25002C15.0963 6.50728 15.2621 6.72766 15.4909 6.86269C15.7197 6.99772 15.9927 7.03632 16.25 6.97002C16.5073 6.90371 16.7276 6.73793 16.8627 6.50914C16.9977 6.28034 17.0363 6.00728 16.97 5.75002C16.6644 4.66818 16.0132 3.71605 15.1158 3.03895C14.2185 2.36185 13.1242 1.99698 12 2.00002C10.6739 2.00002 9.40215 2.5268 8.46447 3.46448C7.52678 4.40217 7 5.67394 7 7.00002V9.99002C6.25115 10.3592 5.62031 10.9303 5.1786 11.6388C4.73689 12.3473 4.50185 13.1651 4.5 14V17C4.50185 18.1929 4.97655 19.3364 5.82006 20.18C6.66358 21.0235 7.80709 21.4982 9 21.5H15C16.1929 21.4982 17.3364 21.0235 18.1799 20.18C19.0234 19.3364 19.4981 18.1929 19.5 17V14C19.4981 12.8071 19.0234 11.6636 18.1799 10.8201C17.3364 9.97657 16.1929 9.50187 15 9.50002V9.50002ZM13 16C13 16.2652 12.8946 16.5196 12.7071 16.7071C12.5196 16.8947 12.2652 17 12 17C11.7348 17 11.4804 16.8947 11.2929 16.7071C11.1054 16.5196 11 16.2652 11 16V15C11 14.7348 11.1054 14.4804 11.2929 14.2929C11.4804 14.1054 11.7348 14 12 14C12.2652 14 12.5196 14.1054 12.7071 14.2929C12.8946 14.4804 13 14.7348 13 15V16Z" fill="#A5A7AF"/>
</svg>
