<svg width="192" height="26" viewBox="0 0 192 26" fill="none" xmlns="http://www.w3.org/2000/svg">
<path d="M0 26H7.97227C12.1834 26 15.7838 21.7689 15.6552 17.5056H15.6231C15.6552 17.4733 15.6552 17.4733 15.6552 17.441C15.6552 16.5043 15.4623 15.6323 15.173 14.7925C14.1443 11.8534 11.7334 10.077 7.94012 10.077H7.7151C6.26852 10.077 5.11125 9.46335 5.04696 8.04224V7.78385C5.11125 6.33043 6.33281 5.94286 7.77939 5.94286H15.6552L15.5909 2.35776C15.5909 1.13043 14.5623 0.0968932 13.3407 0.0968932H7.65081C3.43965 0.0968932 0 3.55279 0 7.78385V7.88074C0 8.81739 0.160732 9.72174 0.482194 10.5292C1.63946 13.436 4.40404 15.0832 7.7151 15.0832H7.94012C9.41885 15.0832 10.4154 15.8584 10.4797 17.2795V17.5379C10.4154 18.959 9.32241 19.8311 7.87583 19.8311H0V26Z" fill="url(#paint0_linear_9_1879)"/>
<path d="M31.7256 0C24.6213 0 18.8671 5.78137 18.8671 12.9193C18.8671 20.0571 24.6213 25.8385 31.7256 25.8385C38.8299 25.8385 44.5841 20.0571 44.5841 12.9193C44.5841 5.78137 38.8299 0 31.7256 0ZM31.7256 19.6696C27.9966 19.6696 25.007 16.6658 25.007 12.9193C25.007 9.20497 27.9966 6.16894 31.7256 6.16894C35.4224 6.16894 38.4442 9.20497 38.4442 12.9193C38.4442 16.6658 35.4224 19.6696 31.7256 19.6696Z" fill="url(#paint1_linear_9_1879)"/>
<path d="M59.2553 25.7416C65.331 25.7416 70.2815 20.9292 70.2815 14.8571V2.26087C70.2815 1.00124 69.285 0 68.0312 0H64.1737V14.8571C64.1737 17.5702 61.9556 19.7342 59.2553 19.6373C56.6836 19.5404 54.6906 17.3441 54.6906 14.7602V2.26087C54.6906 1.00124 53.694 0 52.4725 0H48.6149V14.6957C48.6149 20.6708 53.3083 25.7416 59.2553 25.7416Z" fill="url(#paint2_linear_9_1879)"/>
<path d="M75.1105 25.8385H90.1871V19.6696H81.2504V2.22857C81.2504 1.00124 80.2539 0 79.0002 0H75.1105V25.8385Z" fill="url(#paint3_linear_9_1879)"/>
<path d="M94.1973 25.8385H100.305V9.68944L105.545 15.8261C106.445 16.8596 108.052 16.8596 108.952 15.8261L111.299 13.113L114.192 9.68944V25.8385H120.3V0H114.835C114.578 0 114.353 0.0968932 114.192 0.290683L107.249 8.39752L100.305 0.290683C100.144 0.0968932 99.9193 0 99.6943 0H94.1973V25.8385Z" fill="url(#paint4_linear_9_1879)"/>
<path d="M123.499 25.8385H129.864L132.34 20.5093H141.501L143.977 25.8385H150.277L150.341 25.8062L138.962 1.35652C138.608 0.581365 137.837 0.0322977 136.904 0.0322977C135.972 0.0322977 135.168 0.613664 134.847 1.42112L134.815 1.45341L123.499 25.8385ZM135.04 14.728L136.936 10.6261L138.801 14.728H135.04Z" fill="url(#paint5_linear_9_1879)"/>
<path d="M158.441 25.8385H164.549V6.13665H172.65V2.26087C172.65 1.03354 171.653 0 170.399 0H150.34V6.13665H158.441V25.8385Z" fill="url(#paint6_linear_9_1879)"/>
<path d="M176.666 25.8385H192V19.7019H182.774V15.9876H192V9.85093H182.774V6.13665H192V2.26087C192 1.00124 190.971 0 189.75 0H176.666V25.8385Z" fill="url(#paint7_linear_9_1879)"/>
<defs>
<linearGradient id="paint0_linear_9_1879" x1="67.5" y1="2.13588e-06" x2="148.5" y2="26" gradientUnits="userSpaceOnUse">
<stop stop-color="#A534F5"/>
<stop offset="1" stop-color="#5368E9"/>
</linearGradient>
<linearGradient id="paint1_linear_9_1879" x1="67.5" y1="2.13588e-06" x2="148.5" y2="26" gradientUnits="userSpaceOnUse">
<stop stop-color="#A534F5"/>
<stop offset="1" stop-color="#5368E9"/>
</linearGradient>
<linearGradient id="paint2_linear_9_1879" x1="67.5" y1="2.13588e-06" x2="148.5" y2="26" gradientUnits="userSpaceOnUse">
<stop stop-color="#A534F5"/>
<stop offset="1" stop-color="#5368E9"/>
</linearGradient>
<linearGradient id="paint3_linear_9_1879" x1="67.5" y1="2.13588e-06" x2="148.5" y2="26" gradientUnits="userSpaceOnUse">
<stop stop-color="#A534F5"/>
<stop offset="1" stop-color="#5368E9"/>
</linearGradient>
<linearGradient id="paint4_linear_9_1879" x1="67.5" y1="2.13588e-06" x2="148.5" y2="26" gradientUnits="userSpaceOnUse">
<stop stop-color="#A534F5"/>
<stop offset="1" stop-color="#5368E9"/>
</linearGradient>
<linearGradient id="paint5_linear_9_1879" x1="67.5" y1="2.13588e-06" x2="148.5" y2="26" gradientUnits="userSpaceOnUse">
<stop stop-color="#A534F5"/>
<stop offset="1" stop-color="#5368E9"/>
</linearGradient>
<linearGradient id="paint6_linear_9_1879" x1="67.5" y1="2.13588e-06" x2="148.5" y2="26" gradientUnits="userSpaceOnUse">
<stop stop-color="#A534F5"/>
<stop offset="1" stop-color="#5368E9"/>
</linearGradient>
<linearGradient id="paint7_linear_9_1879" x1="67.5" y1="2.13588e-06" x2="148.5" y2="26" gradientUnits="userSpaceOnUse">
<stop stop-color="#A534F5"/>
<stop offset="1" stop-color="#5368E9"/>
</linearGradient>
</defs>
</svg>
