<svg width="28" height="28" viewBox="0 0 28 28" fill="none" xmlns="http://www.w3.org/2000/svg">
<g clip-path="url(#clip0_9_1889)">
<path d="M14 28C21.732 28 28 21.732 28 14C28 6.26801 21.732 0 14 0C6.26801 0 0 6.26801 0 14C0 21.732 6.26801 28 14 28Z" fill="#8B46F2"/>
<path fill-rule="evenodd" clip-rule="evenodd" d="M10.5689 19.7805L6.40687 15.2483C5.83707 14.6278 5.86978 13.6461 6.47963 13.0663C7.08949 12.4866 8.05435 12.52 8.62415 13.1404L11.8345 16.6363L16.9161 11.8056C16.9618 11.7621 17.0096 11.7222 17.059 11.6856L19.4486 9.41393C20.0585 8.83419 21.0234 8.86756 21.5932 9.48805C22.163 10.1085 22.1302 11.0902 21.5204 11.67L14.2217 18.6084L14.2139 18.5999L11.6892 21L10.5689 19.78V19.7805Z" fill="white"/>
</g>
<defs>
<clipPath id="clip0_9_1889">
<rect width="28" height="28" fill="white"/>
</clipPath>
</defs>
</svg>
