<svg width="20" height="20" viewBox="0 0 20 20" fill="none" xmlns="http://www.w3.org/2000/svg">
<path d="M17.55 4.74334C16.9388 3.94031 16.0754 3.36604 15.0986 3.11277C14.1217 2.85951 13.088 2.94195 12.1637 3.34685C11.3363 3.70388 10.5984 4.30584 10 5.10466C9.40156 4.30388 8.66367 3.70193 7.83633 3.34685C6.91196 2.94195 5.87831 2.85951 4.90145 3.11277C3.92458 3.36604 3.0612 3.94031 2.45 4.74334C1.80547 5.58787 1.46484 6.64334 1.46484 7.79529C1.46484 9.4531 2.45352 11.2719 4.40313 13.2031C5.9918 14.7761 7.86914 16.0644 8.84648 16.6922C9.19085 16.9126 9.59115 17.0297 10 17.0297C10.4089 17.0297 10.8092 16.9126 11.1535 16.6922C12.1301 16.0644 14.0082 14.7761 15.5969 13.2031C17.5465 11.2726 18.5352 9.4531 18.5352 7.79529C18.5352 6.64334 18.1945 5.58787 17.55 4.74334Z" fill="#F9595F"/>
</svg>
