<svg width="20" height="20" viewBox="0 0 20 20" fill="none" xmlns="http://www.w3.org/2000/svg">
<g clip-path="url(#clip0_11_1826)">
<path d="M13.7491 0C12.6828 0.0737496 11.4366 0.756245 10.7103 1.64499C10.0479 2.45124 9.50286 3.64873 9.71535 4.81247C10.8803 4.84872 12.0841 4.14997 12.7816 3.24623C13.4341 2.40499 13.9278 1.21499 13.7491 0Z" fill="white"/>
<path d="M17.9628 6.71001C16.9391 5.42627 15.5003 4.68127 14.1416 4.68127C12.3478 4.68127 11.5891 5.54002 10.3429 5.54002C9.05786 5.54002 8.08162 4.68377 6.53038 4.68377C5.00663 4.68377 3.38414 5.61502 2.3554 7.20751C0.909159 9.45 1.15666 13.6662 3.50039 17.2575C4.33914 18.5424 5.45913 19.9874 6.92412 19.9999C8.22787 20.0124 8.59537 19.1637 10.3616 19.1549C12.1278 19.1449 12.4628 20.0112 13.7641 19.9974C15.2303 19.9862 16.4116 18.3849 17.2503 17.1C17.8516 16.1787 18.0753 15.715 18.5416 14.675C15.1503 13.3837 14.6066 8.56125 17.9628 6.71001Z" fill="white"/>
</g>
<defs>
<clipPath id="clip0_11_1826">
<rect width="20" height="20" fill="white"/>
</clipPath>
</defs>
</svg>
