<svg width="24" height="24" viewBox="0 0 24 24" fill="none" xmlns="http://www.w3.org/2000/svg">
<g clip-path="url(#clip0_11_1834)">
<path d="M15.9757 0H7.99025C6.581 0.00159801 5.43902 1.14358 5.43762 2.55282V21.4473C5.43902 22.8566 6.581 23.9985 7.99025 23.9999H15.9757C17.385 23.9985 18.5269 22.8566 18.5285 21.4473V2.55282C18.5269 1.14358 17.385 0.00159801 15.9757 0V0ZM11.9831 21.8182C11.3804 21.8182 10.892 21.3299 10.892 20.7272C10.892 20.1248 11.3804 19.6364 11.9831 19.6364C12.5855 19.6364 13.0739 20.1248 13.0739 20.7272C13.0739 21.3299 12.5855 21.8182 11.9831 21.8182ZM13.6194 3.27273H10.3467C10.0455 3.27273 9.80119 3.02843 9.80119 2.72721C9.80119 2.42598 10.0455 2.18188 10.3467 2.18188H13.6194C13.9207 2.18188 14.1648 2.42598 14.1648 2.72721C14.1648 3.02843 13.9207 3.27273 13.6194 3.27273Z" fill="#8B46F2"/>
</g>
<defs>
<clipPath id="clip0_11_1834">
<rect width="24" height="24" fill="white"/>
</clipPath>
</defs>
</svg>
