<svg width="24" height="24" viewBox="0 0 24 24" fill="none" xmlns="http://www.w3.org/2000/svg">
<g clip-path="url(#clip0_11_1822)">
<path d="M18.1196 8.95505C16.9786 7.8141 15.3079 7.4465 13.6139 7.79575L7.2128 2.5585C7.61565 1.59729 7.6431 0.76974 7.1985 0.325096C6.35485 -0.51852 4.13245 0.336353 2.23441 2.23439C0.33624 4.13243 -0.5185 6.35485 0.325116 7.19845C0.76976 7.64295 1.59732 7.61565 2.55852 7.2128L7.7958 13.6139C7.4465 15.3079 7.81415 16.9786 8.95495 18.1195C8.9559 18.1205 8.95695 18.1216 8.9579 18.1225L8.95695 18.1216C10.1751 19.336 12.851 18.6766 15.2198 16.6806L23.2363 24.0001H24V23.2364L16.6805 15.2199C18.6775 12.8497 19.3365 10.1722 18.1194 8.95505H18.1196Z" fill="#A5A7AF"/>
</g>
<defs>
<clipPath id="clip0_11_1822">
<rect width="24" height="24" fill="white"/>
</clipPath>
</defs>
</svg>
