<svg width="24" height="24" viewBox="0 0 24 24" fill="none" xmlns="http://www.w3.org/2000/svg">
<g clip-path="url(#clip0_11_1827)">
<path fill-rule="evenodd" clip-rule="evenodd" d="M9.81824 16.9091C9.81824 12.9929 12.9929 9.81824 16.9091 9.81824C20.8254 9.81824 24.0001 12.9929 24.0001 16.9091C24.0001 20.8254 20.8254 24.0001 16.9091 24.0001C12.9929 24.0001 9.81824 20.8254 9.81824 16.9091ZM17.2287 13.4105C17.6547 12.9845 18.3454 12.9845 18.7714 13.4105L20.4078 15.0469C20.8338 15.4729 20.8338 16.1636 20.4078 16.5896L17.7741 19.2233C17.1604 19.837 16.3279 20.1819 15.46 20.1819H14.7273C14.1248 20.1819 13.6364 19.6935 13.6364 19.091V18.3583C13.6364 17.4904 13.9813 16.6579 14.595 16.0442L17.2287 13.4105Z" fill="#A5A7AF"/>
<path fill-rule="evenodd" clip-rule="evenodd" d="M3.27273 2.18182C2.67024 2.18182 2.18182 2.67024 2.18182 3.27273V20.7273C2.18182 21.3298 2.67024 21.8182 3.27273 21.8182H9.27273V24H3.27273C1.46525 24 0 22.5348 0 20.7273V3.27273C0 1.46525 1.46525 0 3.27273 0H9.51494C10.3338 0 11.1228 0.306934 11.7264 0.860223L16.9388 5.63819C17.615 6.25808 18 7.13332 18 8.05069V8.18182H15.8182V8.05069C15.8182 7.74491 15.6899 7.45316 15.4644 7.24653L10.2521 2.46856C10.0509 2.28413 9.78788 2.18182 9.51494 2.18182H3.27273Z" fill="#A5A7AF"/>
<path fill-rule="evenodd" clip-rule="evenodd" d="M9.27271 4.90908V1.63635H11.4545V4.90908C11.4545 5.51157 11.9429 5.99999 12.5454 5.99999H16.3636V8.18181H12.5454C10.738 8.18181 9.27271 6.71655 9.27271 4.90908Z" fill="#A5A7AF"/>
</g>
<defs>
<clipPath id="clip0_11_1827">
<rect width="24" height="24" fill="white"/>
</clipPath>
</defs>
</svg>
