<svg width="18" height="18" viewBox="0 0 18 18" fill="none" xmlns="http://www.w3.org/2000/svg">
<path d="M9 0C5.40545 0 2.48108 2.92437 2.48108 6.51888C2.48108 10.9798 8.31487 17.5287 8.56325 17.8053C8.79655 18.0651 9.20387 18.0647 9.43674 17.8053C9.68512 17.5287 15.5189 10.9798 15.5189 6.51888C15.5188 2.92437 12.5945 0 9 0ZM9 16.5139C7.03663 14.1817 3.65502 9.5805 3.65502 6.51895C3.65502 3.57166 6.05274 1.17394 9 1.17394C11.9473 1.17394 14.345 3.57166 14.345 6.51892C14.3449 9.58061 10.9639 14.181 9 16.5139Z" fill="#8B46F2"/>
<path d="M9.00001 3.23914C7.1915 3.23914 5.72021 4.71046 5.72021 6.51897C5.72021 8.32748 7.19154 9.7988 9.00001 9.7988C10.8085 9.7988 12.2798 8.32748 12.2798 6.51897C12.2798 4.71046 10.8085 3.23914 9.00001 3.23914ZM9.00001 8.62486C7.8388 8.62486 6.89415 7.68018 6.89415 6.51897C6.89415 5.35776 7.83884 4.41307 9.00001 4.41307C10.1612 4.41307 11.1059 5.35776 11.1059 6.51897C11.1059 7.68018 10.1612 8.62486 9.00001 8.62486Z" fill="#8B46F2"/>
</svg>
